{"title":"Ghost Rider Spirit of Vengeance 2012 TS XviD - ILLUMINATI","uid":7058183,"size":2960266655,"categoryP":"video","categoryS":"movies","magnet":"?xt=urn:btih:d1d8781c40b0e69654a07ed09a210f8d10f7b2f0&amp;dn=Ghost+Rider+Spirit+of+Vengeance+2012+TS+XviD+-+ILLUMINATI&amp;tr=udp%3A%2F%2Ftracker.openbittorrent.com%3A80&amp;tr=udp%3A%2F%2Fopen.demonii.com%3A1337&amp;tr=udp%3A%2F%2Ftracker.coppersurfer.tk%3A6969&amp;tr=udp%3A%2F%2Fexodus.desync.com%3A6969","seeders":0,"leechers":0,"uploader":"TvTeam","files":104,"time":1330233829,"description":". \n &lt;a href=&quot;\nhttp://www.torrenting.com&quot; rel=&quot;nofollow&quot; target=&quot;_NEW&quot;&gt;\nhttp://www.torrenting.com&lt;/a&gt;          :     Once &amp; For all ;)\n\n\n               www . Torrenting . Com \n\n(((((((((((((= Enjoy No RAR releases =))))))))))))))))))))\n\n\n...................................NFO:....................................\n\n.Ghost Rider Spirit of Vengeance 2012 TS XviD - ILLUMINATI\n &lt;a href=&quot;\nhttp://www.imdb.com/title/tt1071875/&quot; rel=&quot;nofollow&quot; target=&quot;_NEW&quot;&gt;\nhttp://www.imdb.com/title/tt1071875/&lt;/a&gt;\n\nSources - Thanks :P\n\nVideo\nID                               : 0\nFormat                           : MPEG-4 Visual\nFormat profile                   : Advanced Simple@L5\nFormat settings, BVOP            : 2\nFormat settings, QPel            : No\nFormat settings, GMC             : No warppoints\nFormat settings, Matrix          : Default (H.263)\nMuxing mode                      : Packed bitstream\nCodec ID                         : XVID\nCodec ID/Hint                    : XviD\nDuration                         : 1h 28mn\nBit rate                         : 2 089 Kbps\nWidth                            : 720 pixels\nHeight                           : 288 pixels\nDisplay aspect ratio             : 2.500\nFrame rate                       : 23.976 fps\nColor space                      : YUV\nChroma subsampling               : 4:2:0\nBit depth                        : 8 bits\nScan type                        : Progressive\nCompression mode                 : Lossy\nBits/(Pixel*Frame)               : 0.420\nStream size                      : 1.29 GiB (94%)\nWriting library                  : XviD 64\n\nAudio\nID                               : 1\nFormat                           : MPEG Audio\nFormat version                   : Version 1\nFormat profile                   : Layer 3\nMode                             : Joint stereo\nMode extension                   : MS Stereo\nCodec ID                         : 55\nCodec ID/Hint                    : MP3\nDuration                         : 1h 28mn\nBit rate mode                    : Constant\nBit rate                         : 128 Kbps\nChannel(s)                       : 2 channels\nSampling rate                    : 44.1 KHz\nCompression mode                 : Lossy\nStream size                      : 80.7 MiB (6%)\nAlignment                        : Split accross interleaves\nInterleave, duration             : 42 ms (1.00 video frame)\n\nNotes -\nNothing you need to know other than its very nice ;)\n\n\n[IMG]http://i.imgur.com/eI5Qd.png[/IMG]\n[IMG]http://i.imgur.com/dJTeh.png[/IMG]\n[IMG]http://i.imgur.com/Cohpq.png[/IMG]\n[IMG]http://i.imgur.com/vu6xr.png[/IMG]\n[IMG]http://i.imgur.com/lSWqI.png[/IMG]\n[IMG]http://i.imgur.com/e89gb.png[/IMG]\n[IMG]http://i.imgur.com/e59tQ.png[/IMG]\n[IMG]http://i.imgur.com/wNVda.png[/IMG]\n[IMG]http://i.im","torrent":{"xt":"urn:btih:d1d8781c40b0e69654a07ed09a210f8d10f7b2f0","amp;dn":"Ghost+Rider+Spirit+of+Vengeance+2012+TS+XviD+-+ILLUMINATI","amp;tr":["udp%3A%2F%2Ftracker.openbittorrent.com%3A80","udp%3A%2F%2Fopen.demonii.com%3A1337","udp%3A%2F%2Ftracker.coppersurfer.tk%3A6969","udp%3A%2F%2Fexodus.desync.com%3A6969"],"infoHash":"d1d8781c40b0e69654a07ed09a210f8d10f7b2f0","infoHashBuffer":{"type":"Buffer","data":[209,216,120,28,64,176,230,150,84,160,126,208,154,33,15,141,16,247,178,240]},"announce":[],"urlList":[]}}